<svg width="32" height="32" viewBox="0 0 32 32" fill="none" xmlns="http://www.w3.org/2000/svg">
<path d="M0 6C0 2.68629 2.68629 0 6 0H26C29.3137 0 32 2.68629 32 6V26C32 29.3137 29.3137 32 26 32H6C2.68629 32 0 29.3137 0 26V6Z" fill="url(#paint0_linear_214_484)"/>
<path d="M0 6C0 2.68629 2.68629 0 6 0H26C29.3137 0 32 2.68629 32 6V26C32 29.3137 29.3137 32 26 32H6C2.68629 32 0 29.3137 0 26V6Z" fill="url(#paint1_linear_214_484)"/>
<path d="M4.97193 14.6684L3.56257 14.9004C3.37267 14.9318 3.20004 14.7871 3.20004 14.5974C3.20004 14.4076 3.37267 14.2629 3.56257 14.2936L4.97193 14.5257C5.05342 14.5393 5.05342 14.6547 4.97193 14.6684Z" fill="#E8B500"/>
<path d="M5.51129 11.8464L4.11919 11.5276C3.93205 11.4846 3.82847 11.286 3.90167 11.1106C3.97556 10.9351 4.191 10.8669 4.35397 10.9672L5.56653 11.7147C5.63628 11.7577 5.59208 11.8648 5.51129 11.8464Z" fill="#E8B500"/>
<path d="M7.10159 9.44363L5.93874 8.62244C5.78199 8.51186 5.76335 8.28933 5.89938 8.15485C6.03542 8.02038 6.26122 8.03881 6.37239 8.19376L7.2031 9.34328C7.25074 9.4095 7.16857 9.49141 7.1009 9.44431L7.10159 9.44363Z" fill="#E8B500"/>
<path d="M9.50106 7.82514L8.74493 6.62647C8.64342 6.46538 8.71247 6.2524 8.88994 6.17936C9.0674 6.10632 9.26904 6.20871 9.31185 6.39438L9.63433 7.77053C9.65297 7.84972 9.54456 7.89408 9.50106 7.82514Z" fill="#E8B500"/>
<path d="M12.3448 7.23739L12.11 5.84417C12.0782 5.65646 12.2246 5.4858 12.4173 5.4858C12.6092 5.4858 12.7556 5.65646 12.7246 5.84417L12.4898 7.23739C12.476 7.31794 12.3593 7.31794 12.3455 7.23739H12.3448Z" fill="#E8B500"/>
<path d="M15.1994 7.77049L15.5218 6.39435C15.5653 6.20936 15.7663 6.10697 15.9438 6.17932C16.1212 6.25236 16.1903 6.46534 16.0888 6.62643L15.3326 7.8251C15.2891 7.89405 15.1807 7.85036 15.1994 7.77049Z" fill="#E8B500"/>
<path d="M17.6307 9.34258L18.4615 8.19306C18.5733 8.03811 18.7984 8.01968 18.9345 8.15415C19.0705 8.28862 19.0519 8.51184 18.8951 8.62174L17.7323 9.44292C17.6653 9.49002 17.5824 9.40879 17.6301 9.3419L17.6307 9.34258Z" fill="#E8B500"/>
<path d="M12.8006 8.62447C9.29961 8.62447 6.43392 11.3658 6.2896 14.7898H17.4271C17.4886 13.74 17.8988 12.7809 18.5451 12.0246C17.4451 10.0027 15.283 8.62447 12.8006 8.62447Z" fill="#E8B500"/>
<path d="M26.4122 14.7899C26.2686 12.6164 24.4325 10.8901 22.1972 10.8894H22.1952C21.0289 10.8894 19.9717 11.359 19.2066 12.1161C19.0636 12.2574 18.9303 12.4089 18.8088 12.5693C18.3337 13.1973 18.032 13.9605 17.9774 14.7899H26.4122Z" fill="#ABD797"/>
<path d="M6.29241 15.3332C6.59624 20.3341 15.1415 25.7683 16.3527 26.5144C17.5639 25.7683 26.1092 20.332 26.413 15.3332H6.29241Z" fill="#57B030"/>
<defs>
<linearGradient id="paint0_linear_214_484" x1="29.522" y1="32" x2="2.44261" y2="0.0148657" gradientUnits="userSpaceOnUse">
<stop stop-color="#103328"/>
<stop offset="1" stop-color="#2A6F59"/>
</linearGradient>
<linearGradient id="paint1_linear_214_484" x1="29.522" y1="32" x2="2.44261" y2="0.0148657" gradientUnits="userSpaceOnUse">
<stop stop-color="#103328"/>
<stop offset="1" stop-color="#2A6F59"/>
</linearGradient>
</defs>
</svg>
