<svg width="201" height="32" viewBox="0 0 201 32" fill="none" xmlns="http://www.w3.org/2000/svg">
<path d="M0 6C0 2.68629 2.68629 0 6 0H26C29.3137 0 32 2.68629 32 6V26C32 29.3137 29.3137 32 26 32H6C2.68629 32 0 29.3137 0 26V6Z" fill="url(#paint0_linear_214_230)"/>
<path d="M0 6C0 2.68629 2.68629 0 6 0H26C29.3137 0 32 2.68629 32 6V26C32 29.3137 29.3137 32 26 32H6C2.68629 32 0 29.3137 0 26V6Z" fill="url(#paint1_linear_214_230)"/>
<path d="M4.97193 14.6684L3.56257 14.9004C3.37267 14.9318 3.20004 14.7871 3.20004 14.5974C3.20004 14.4076 3.37267 14.2629 3.56257 14.2936L4.97193 14.5257C5.05342 14.5393 5.05342 14.6547 4.97193 14.6684Z" fill="#E8B500"/>
<path d="M5.51129 11.8464L4.11919 11.5276C3.93205 11.4846 3.82847 11.286 3.90167 11.1106C3.97556 10.9351 4.191 10.8669 4.35397 10.9672L5.56653 11.7147C5.63628 11.7577 5.59208 11.8648 5.51129 11.8464Z" fill="#E8B500"/>
<path d="M7.10159 9.44363L5.93874 8.62244C5.78199 8.51186 5.76335 8.28933 5.89938 8.15485C6.03542 8.02038 6.26122 8.03881 6.37239 8.19376L7.2031 9.34328C7.25074 9.4095 7.16857 9.49141 7.1009 9.44431L7.10159 9.44363Z" fill="#E8B500"/>
<path d="M9.50106 7.82514L8.74493 6.62647C8.64342 6.46538 8.71247 6.2524 8.88994 6.17936C9.0674 6.10632 9.26904 6.20871 9.31185 6.39438L9.63433 7.77053C9.65297 7.84972 9.54456 7.89408 9.50106 7.82514Z" fill="#E8B500"/>
<path d="M12.3448 7.23739L12.11 5.84417C12.0782 5.65646 12.2246 5.4858 12.4173 5.4858C12.6092 5.4858 12.7556 5.65646 12.7246 5.84417L12.4898 7.23739C12.476 7.31794 12.3593 7.31794 12.3455 7.23739H12.3448Z" fill="#E8B500"/>
<path d="M15.1994 7.77049L15.5218 6.39435C15.5653 6.20936 15.7663 6.10697 15.9438 6.17932C16.1212 6.25236 16.1903 6.46534 16.0888 6.62643L15.3326 7.8251C15.2891 7.89405 15.1807 7.85036 15.1994 7.77049Z" fill="#E8B500"/>
<path d="M17.6307 9.34258L18.4615 8.19306C18.5733 8.03811 18.7984 8.01968 18.9345 8.15415C19.0705 8.28862 19.0519 8.51184 18.8951 8.62174L17.7323 9.44292C17.6653 9.49002 17.5824 9.40879 17.6301 9.3419L17.6307 9.34258Z" fill="#E8B500"/>
<path d="M12.8006 8.62447C9.29961 8.62447 6.43392 11.3658 6.2896 14.7898H17.4271C17.4886 13.74 17.8988 12.7809 18.5451 12.0246C17.4451 10.0027 15.283 8.62447 12.8006 8.62447Z" fill="#E8B500"/>
<path d="M26.4122 14.7899C26.2686 12.6164 24.4325 10.8901 22.1972 10.8894H22.1952C21.0289 10.8894 19.9717 11.359 19.2066 12.1161C19.0636 12.2574 18.9303 12.4089 18.8088 12.5693C18.3337 13.1973 18.032 13.9605 17.9774 14.7899H26.4122Z" fill="#ABD797"/>
<path d="M6.29241 15.3332C6.59624 20.3341 15.1415 25.7683 16.3527 26.5144C17.5639 25.7683 26.1092 20.332 26.413 15.3332H6.29241Z" fill="#57B030"/>
<path d="M38.5334 14.2824C38.5334 14.998 39.2892 15.3652 40.6177 15.4884C43.2951 15.7332 44.6638 16.7347 44.6638 18.8198C44.6638 20.905 42.8449 22.4979 39.9843 22.4979C37.389 22.4979 35.2636 21.1694 35.4887 17.9818H37.9411C37.8187 19.5962 38.7585 20.4136 40.0048 20.4136C41.3743 20.4136 42.0078 19.7391 42.0078 19.0646C42.0078 18.2677 41.3538 17.8586 39.9235 17.7156C37.0825 17.4503 35.8773 16.4077 35.8773 14.4869C35.8773 12.1776 37.9616 11.0948 40.0664 11.0948C42.4169 11.0948 44.419 12.2597 44.1947 14.8755H41.7424C41.7835 13.7517 41.1295 13.179 40.087 13.179C39.249 13.179 38.5343 13.649 38.5343 14.2824H38.5334Z" fill="#103328"/>
<path d="M57.4366 18.2471L59.092 11.3806H62.0759L59.092 22.212H56.0063L53.595 14.9166L51.1838 22.212H48.098L45.1142 11.3806H48.098L49.7535 18.2471L51.9807 11.3806H55.2094L57.4366 18.2471Z" fill="#103328"/>
<path d="M65.1822 6.33304C66.1425 6.33304 66.9189 7.1094 66.9189 8.06979C66.9189 9.03018 66.1425 9.80654 65.1822 9.80654C64.2218 9.80654 63.4454 9.03018 63.4454 8.06979C63.4454 7.1094 64.2218 6.33304 65.1822 6.33304ZM63.7921 11.3807H66.5714V22.212H63.7921V11.3807Z" fill="#103328"/>
<path d="M73.1519 18.5332C73.1519 19.6571 73.7245 20.127 74.7252 20.127C75.2156 20.127 75.7677 20.0046 75.9312 19.9224L75.9518 22.1907C75.7061 22.2926 75.0521 22.4971 74.1945 22.4971C71.9056 22.4971 70.4137 21.3733 70.4137 19.0639V13.8528H68.4724V11.3799H70.4137V8.62113H73.1519V11.3799H76.1358V13.8528H73.1519V18.5332Z" fill="#103328"/>
<path d="M83.3696 19.9643C85.0044 19.9643 85.8835 19.0449 86.0667 17.9202H88.9273C88.6414 20.3109 86.9244 22.4979 83.3482 22.4979C80.0373 22.4979 77.4831 20.2501 77.4831 16.7963C77.4831 13.3425 80.0373 11.0948 83.3482 11.0948C86.9244 11.0948 88.6414 13.2817 88.9273 15.6725H86.0667C85.8827 14.5486 85.0044 13.6293 83.3696 13.6293C81.5712 13.6293 80.2838 14.8755 80.2838 16.7972C80.2838 18.7188 81.5712 19.9651 83.3696 19.9651V19.9643Z" fill="#103328"/>
<path d="M90.7266 5.86322H93.506V12.9549C94.201 11.6675 95.3857 11.0949 96.9392 11.0949C99.6364 11.0949 101.088 12.9746 101.088 14.9775V22.2121H98.3088V15.8771C98.3088 14.5076 97.4913 13.7107 96.0816 13.7107C94.5691 13.7107 93.5068 14.6711 93.5068 16.163V22.2121H90.7275V5.86322H90.7266Z" fill="#103328"/>
<path d="M112.968 18.3094C112.968 19.4332 113.54 19.9032 114.541 19.9032C115.031 19.9032 115.583 19.7808 115.747 19.6986L115.768 21.9669C115.522 22.0687 114.868 22.2733 114.01 22.2733C111.721 22.2733 110.229 21.1494 110.229 18.84V13.6289H108.288V11.1561H110.229V8.3973H112.968V11.1561H115.952V13.6289H112.968V18.3094Z" fill="#103328"/>
<path d="M117.301 16.5727C117.301 13.1189 119.691 10.8711 123.084 10.8711C126.477 10.8711 128.868 13.1189 128.868 16.5727C128.868 20.0265 126.477 22.2743 123.084 22.2743C119.691 22.2743 117.301 20.0265 117.301 16.5727ZM126.026 16.5727C126.026 14.693 124.841 13.487 123.083 13.487C121.326 13.487 120.141 14.693 120.141 16.5727C120.141 18.4524 121.326 19.6584 123.083 19.6584C124.841 19.6584 126.026 18.4524 126.026 16.5727Z" fill="#103328"/>
<path d="M138.942 20.1489C138.308 21.0887 137.102 21.7838 135.467 21.7838C132.75 21.7838 130.318 19.5771 130.318 16.327C130.318 13.0769 132.75 10.8702 135.467 10.8702C137.429 10.8702 138.717 11.8512 139.391 13.1796V11.1561H141.68V21.64C141.68 24.5006 139.371 26.3606 136.06 26.3606C132.749 26.3606 130.767 24.5828 130.563 22.3145H133.26C133.444 23.173 134.159 24.1129 136.06 24.1129C137.961 24.1129 138.941 23.0703 138.941 21.8856V20.1489H138.942ZM135.978 13.3842C134.588 13.3842 133.097 14.3241 133.097 16.327C133.097 18.33 134.589 19.2493 135.978 19.2493C137.858 19.2493 138.942 18.0638 138.942 16.327C138.942 14.5903 137.859 13.3842 135.978 13.3842Z" fill="#103328"/>
<path d="M143.254 16.5727C143.254 13.0983 145.727 10.8711 148.731 10.8711C151.734 10.8711 154.003 12.9554 154.003 16.5727C154.003 16.9613 153.942 17.3696 153.902 17.5125H146.075C146.218 19.0858 147.199 20.0265 148.813 20.0265C150.427 20.0265 151.081 19.2912 151.327 18.5551H153.922C153.616 20.4151 152.165 22.2743 148.833 22.2743C145.502 22.2743 143.254 20.0471 143.254 16.5727ZM151.142 15.4694C151.02 13.9363 150.08 13.1189 148.649 13.1189C147.217 13.1189 146.237 13.9774 146.115 15.4694H151.142Z" fill="#103328"/>
<path d="M159.235 18.3094C159.235 19.4332 159.808 19.9032 160.808 19.9032C161.299 19.9032 161.851 19.7808 162.014 19.6986L162.035 21.9669C161.789 22.0687 161.135 22.2733 160.278 22.2733C157.989 22.2733 156.497 21.1494 156.497 18.84V13.6289H154.555V11.1561H156.497V8.3973H159.235V11.1561H162.219V13.6289H159.235V18.3094Z" fill="#103328"/>
<path d="M164.18 5.63939H166.959V12.731C167.654 11.4437 168.839 10.871 170.392 10.871C173.09 10.871 174.541 12.7507 174.541 14.7537V21.9883H171.762V15.6533C171.762 14.2838 170.945 13.4869 169.535 13.4869C168.022 13.4869 166.96 14.4473 166.96 15.9392V21.9883H164.181V5.63939H164.18Z" fill="#103328"/>
<path d="M176.156 16.5727C176.156 13.0983 178.629 10.8711 181.632 10.8711C184.636 10.8711 186.905 12.9554 186.905 16.5727C186.905 16.9613 186.843 17.3696 186.803 17.5125H178.976C179.119 19.0858 180.1 20.0265 181.714 20.0265C183.329 20.0265 183.983 19.2912 184.228 18.5551H186.824C186.517 20.4151 185.066 22.2743 181.735 22.2743C178.403 22.2743 176.156 20.0471 176.156 16.5727ZM184.043 15.4694C183.921 13.9363 182.981 13.1189 181.55 13.1189C180.119 13.1189 179.139 13.9774 179.016 15.4694H184.043Z" fill="#103328"/>
<path d="M194.568 14.7743C194.568 13.855 194.037 13.2824 193.199 13.2824C192.156 13.2824 191.523 14.0793 191.523 15.2031V21.9875H188.743V11.1561H191.032V13.261C191.502 11.5644 192.708 10.8702 194.139 10.8702C195.773 10.8702 197.265 12.1782 197.143 14.7734H194.568V14.7743Z" fill="#103328"/>
<path d="M198.594 18.7185C199.554 18.7185 200.331 19.4949 200.331 20.4552C200.331 21.4156 199.554 22.192 198.594 22.192C197.634 22.192 196.857 21.4156 196.857 20.4552C196.857 19.4949 197.634 18.7185 198.594 18.7185Z" fill="#103328"/>
<defs>
<linearGradient id="paint0_linear_214_230" x1="184.818" y1="32" x2="177.525" y2="-21.925" gradientUnits="userSpaceOnUse">
<stop stop-color="#103328"/>
<stop offset="1" stop-color="#2A6F59"/>
</linearGradient>
<linearGradient id="paint1_linear_214_230" x1="184.818" y1="32" x2="177.525" y2="-21.925" gradientUnits="userSpaceOnUse">
<stop stop-color="#103328"/>
<stop offset="1" stop-color="#2A6F59"/>
</linearGradient>
</defs>
</svg>
