<svg width="98" height="32" viewBox="0 0 98 32" fill="none" xmlns="http://www.w3.org/2000/svg">
<path d="M9.18243 14.8788C9.7306 12.8333 11.8332 10.7307 13.8787 10.1825L26.6314 6.76491C28.6769 6.21674 29.8907 7.43057 29.3425 9.47608L25.925 22.2287C25.3768 24.2742 23.2742 26.3768 21.2287 26.925L8.47602 30.3426C6.4305 30.8908 5.21667 29.6769 5.76485 27.6314L9.18243 14.8788Z" fill="#57B030"/>
<path d="M4.07 9.76623C4.61818 7.72071 6.72078 5.61812 8.76629 5.06994L21.519 1.65236C23.5645 1.10418 24.7783 2.31802 24.2301 4.36353L20.8125 17.1162C20.2644 19.1617 18.1618 21.2643 16.1163 21.8125L3.36359 25.23C1.31808 25.7782 0.104246 24.5644 0.652423 22.5189L4.07 9.76623Z" fill="#346C1F"/>
<path d="M41.3468 20.1421H45.5281V22.6061H38.1548V9.50214H41.3468V20.1421Z" fill="#101828"/>
<path d="M46.0426 17.3795C46.0426 16.3092 46.2417 15.3697 46.64 14.5608C47.0506 13.7519 47.6044 13.1297 48.3013 12.6941C48.9982 12.2586 49.776 12.0408 50.6346 12.0408C51.3688 12.0408 52.0097 12.1901 52.5573 12.4888C53.1173 12.7875 53.5466 13.1795 53.8453 13.6648V12.1901H57.0373V22.6061H53.8453V21.1315C53.5342 21.6168 53.0986 22.0088 52.5386 22.3075C51.9911 22.6061 51.3502 22.7555 50.616 22.7555C49.7697 22.7555 48.9982 22.5377 48.3013 22.1021C47.6044 21.6541 47.0506 21.0257 46.64 20.2168C46.2417 19.3955 46.0426 18.4497 46.0426 17.3795ZM53.8453 17.3981C53.8453 16.6017 53.6213 15.9732 53.1733 15.5128C52.7377 15.0524 52.2026 14.8221 51.568 14.8221C50.9333 14.8221 50.392 15.0524 49.944 15.5128C49.5084 15.9608 49.2906 16.583 49.2906 17.3795C49.2906 18.1759 49.5084 18.8106 49.944 19.2835C50.392 19.7439 50.9333 19.9741 51.568 19.9741C52.2026 19.9741 52.7377 19.7439 53.1733 19.2835C53.6213 18.823 53.8453 18.1946 53.8453 17.3981Z" fill="#101828"/>
<path d="M69.6132 12.1901L63.0799 27.5528H59.6452L62.0346 22.2515L57.7972 12.1901H61.3626L63.7706 18.7048L66.1599 12.1901H69.6132Z" fill="#101828"/>
<path d="M80.2128 17.2301C80.2128 17.5288 80.1942 17.8399 80.1568 18.1635H72.9328C72.9826 18.8106 73.1879 19.3084 73.5488 19.6568C73.9222 19.9928 74.3764 20.1608 74.9115 20.1608C75.7079 20.1608 76.2617 19.8248 76.5728 19.1528H79.9702C79.7959 19.8372 79.4786 20.4532 79.0182 21.0008C78.5702 21.5484 78.0039 21.9777 77.3195 22.2888C76.6351 22.5999 75.8697 22.7555 75.0235 22.7555C74.0031 22.7555 73.0946 22.5377 72.2982 22.1021C71.5017 21.6666 70.8795 21.0444 70.4315 20.2355C69.9835 19.4266 69.7595 18.4808 69.7595 17.3981C69.7595 16.3155 69.9773 15.3697 70.4128 14.5608C70.8608 13.7519 71.483 13.1297 72.2795 12.6941C73.0759 12.2586 73.9906 12.0408 75.0235 12.0408C76.0315 12.0408 76.9275 12.2524 77.7115 12.6755C78.4955 13.0986 79.1053 13.7021 79.5408 14.4861C79.9888 15.2701 80.2128 16.1848 80.2128 17.2301ZM76.9462 16.3901C76.9462 15.8426 76.7595 15.407 76.3862 15.0835C76.0128 14.7599 75.5462 14.5981 74.9862 14.5981C74.451 14.5981 73.9968 14.7537 73.6235 15.0648C73.2626 15.3759 73.0386 15.8177 72.9515 16.3901H76.9462Z" fill="#101828"/>
<path d="M84.7154 13.9261C85.0888 13.3537 85.5554 12.9057 86.1154 12.5821C86.6754 12.2461 87.2977 12.0781 87.9821 12.0781V15.4568H87.1048C86.3083 15.4568 85.711 15.631 85.3128 15.9795C84.9145 16.3155 84.7154 16.9128 84.7154 17.7715V22.6061H81.5234V12.1901H84.7154V13.9261Z" fill="#101828"/>
<path d="M93.3718 22.7555C92.4634 22.7555 91.6545 22.5999 90.9451 22.2888C90.2358 21.9777 89.6758 21.5546 89.2651 21.0195C88.8545 20.4719 88.6243 19.8621 88.5745 19.1901H91.7291C91.7665 19.551 91.9345 19.8435 92.2331 20.0675C92.5318 20.2915 92.8989 20.4035 93.3345 20.4035C93.7327 20.4035 94.0376 20.3288 94.2491 20.1795C94.4731 20.0177 94.5851 19.8124 94.5851 19.5635C94.5851 19.2648 94.4296 19.047 94.1185 18.9101C93.8074 18.7608 93.3034 18.599 92.6065 18.4248C91.8598 18.2506 91.2376 18.0701 90.7398 17.8835C90.242 17.6844 89.8127 17.3795 89.4518 16.9688C89.0909 16.5457 88.9105 15.9795 88.9105 15.2701C88.9105 14.6728 89.0723 14.1315 89.3958 13.6461C89.7318 13.1484 90.2171 12.7564 90.8518 12.4701C91.4989 12.1839 92.2642 12.0408 93.1478 12.0408C94.4545 12.0408 95.4811 12.3644 96.2278 13.0115C96.9869 13.6586 97.4225 14.5172 97.5345 15.5875H94.5851C94.5354 15.2266 94.3736 14.9404 94.0998 14.7288C93.8385 14.5172 93.49 14.4115 93.0545 14.4115C92.6811 14.4115 92.3949 14.4861 92.1958 14.6355C91.9967 14.7724 91.8971 14.9652 91.8971 15.2141C91.8971 15.5128 92.0527 15.7368 92.3638 15.8861C92.6874 16.0355 93.1851 16.1848 93.8571 16.3341C94.6287 16.5332 95.2571 16.7324 95.7425 16.9315C96.2278 17.1181 96.6509 17.4292 97.0118 17.8648C97.3851 18.2879 97.578 18.8604 97.5905 19.5821C97.5905 20.1919 97.4163 20.7395 97.0678 21.2248C96.7318 21.6977 96.2403 22.071 95.5931 22.3448C94.9585 22.6186 94.218 22.7555 93.3718 22.7555Z" fill="#101828"/>
</svg>
